<svg width="295" height="98" viewBox="0 0 295 98" fill="none" xmlns="http://www.w3.org/2000/svg">
<circle cx="49" cy="49" r="49" fill="black"/>
<path d="M147 49C147 76.062 125.062 98 98 98C98 98 98.0001 38.9375 98 0C125.062 0 147 21.938 147 49Z" fill="black"/>
<path d="M197 49C197 76.062 175.062 98 148 98C148 98 148 38.9375 148 0C175.062 0 197 21.938 197 49Z" fill="black"/>
<path d="M246 49C246 76.062 224.062 98 197 98C197 98 197 38.9375 197 0C224.062 0 246 21.938 246 49Z" fill="black"/>
<path d="M295 49C295 76.062 273.062 98 246 98C246 98 246 38.9375 246 0C273.062 0 295 21.938 295 49Z" fill="black"/>
</svg>
