<svg width="83" height="32" viewBox="0 0 83 32" fill="none" xmlns="http://www.w3.org/2000/svg">
<path d="M0 18.8852V2.66909H3.42452L8.18361 12.4139L12.9427 2.66909H16.342V18.8852H12.9427V8.33466L9.16564 16.0902H7.20157L3.39934 8.33466V18.8852H0Z" fill="#1D1D1D"/>
<path d="M25.4245 19.137C23.3597 19.137 21.7229 18.625 20.5143 17.601C19.3056 16.5602 18.7013 14.9907 18.7013 12.8923C18.7013 10.9954 19.2049 9.49296 20.2121 8.38502C21.2361 7.2603 22.7553 6.69794 24.7698 6.69794C26.6163 6.69794 28.0264 7.18476 29.0001 8.1584C29.9905 9.11525 30.4857 10.3743 30.4857 11.9354V14.101H21.8489C22.0335 15.0578 22.47 15.7125 23.1582 16.065C23.8633 16.4175 24.8537 16.5938 26.1295 16.5938C26.7674 16.5938 27.4137 16.5351 28.0684 16.4175C28.7399 16.3 29.3106 16.149 29.7807 15.9643V18.3816C29.2267 18.6334 28.5804 18.8181 27.8418 18.9356C27.1031 19.0699 26.2974 19.137 25.4245 19.137ZM21.8489 12.011H27.5144V11.3563C27.5144 10.668 27.313 10.1309 26.9101 9.74476C26.5072 9.34188 25.8273 9.14043 24.8705 9.14043C23.7458 9.14043 22.9568 9.36705 22.5035 9.8203C22.0671 10.2735 21.8489 11.0038 21.8489 12.011Z" fill="#1D1D1D"/>
<path d="M36.1763 19.137C35.018 19.137 34.1702 18.8684 33.633 18.3313C33.1127 17.7941 32.8525 16.9379 32.8525 15.7629V1.91368H36.2518V15.4859C36.2518 15.9055 36.3357 16.1993 36.5036 16.3672C36.6715 16.5183 36.9149 16.5938 37.2338 16.5938C37.6703 16.5938 38.0648 16.5351 38.4173 16.4175V18.7593C37.7794 19.0111 37.0324 19.137 36.1763 19.137Z" fill="#1D1D1D"/>
<path d="M46.3202 19.137C44.0875 19.137 42.4508 18.5998 41.41 17.5255C40.3692 16.4343 39.8489 14.8983 39.8489 12.9175C39.8489 10.9366 40.3692 9.40902 41.41 8.33466C42.4676 7.24351 44.1043 6.69794 46.3202 6.69794C48.5528 6.69794 50.1896 7.24351 51.2304 8.33466C52.2879 9.40902 52.8167 10.9366 52.8167 12.9175C52.8167 14.8983 52.2963 16.4343 51.2555 17.5255C50.2147 18.5998 48.5696 19.137 46.3202 19.137ZM46.3202 16.2413C47.4113 16.2413 48.1919 15.9979 48.662 15.5111C49.132 15.0074 49.367 14.1429 49.367 12.9175C49.367 11.692 49.132 10.8359 48.662 10.3491C48.1919 9.84548 47.4113 9.59368 46.3202 9.59368C45.2458 9.59368 44.4736 9.84548 44.0036 10.3491C43.5336 10.8359 43.2986 11.692 43.2986 12.9175C43.2986 14.1429 43.5336 15.0074 44.0036 15.5111C44.4736 15.9979 45.2458 16.2413 46.3202 16.2413Z" fill="#1D1D1D"/>
<path d="M60.166 19.137C59.1085 19.137 58.16 18.9524 57.3207 18.5831C56.4981 18.197 55.8518 17.5758 55.3818 16.7197C54.9117 15.8468 54.6767 14.6969 54.6767 13.27C54.6767 11.8431 54.9369 10.6429 55.4573 9.66922C55.9777 8.69558 56.6744 7.95696 57.5473 7.45335C58.4202 6.94974 59.377 6.69794 60.4178 6.69794C61.7272 6.69794 62.8435 7.0001 63.7668 7.60443V0H67.1662V18.8852H64.2452L64.0438 17.7773C63.5234 18.2305 62.9527 18.5747 62.3315 18.8097C61.7272 19.0279 61.0054 19.137 60.166 19.137ZM61.0977 16.6442C62.1553 16.6442 63.045 16.2833 63.7668 15.5614V10.1225C63.0618 9.50135 62.2392 9.19079 61.2991 9.19079C59.184 9.19079 58.1264 10.5505 58.1264 13.27C58.1264 14.5458 58.3866 15.4271 58.907 15.9139C59.4274 16.4008 60.1576 16.6442 61.0977 16.6442Z" fill="#1D1D1D"/>
<path d="M71.6597 24.918C71.1393 24.918 70.6776 24.8845 70.2747 24.8173C69.8719 24.7669 69.4774 24.6662 69.0913 24.5151V22.123C69.3766 22.2237 69.6368 22.2909 69.8719 22.3245C70.1237 22.358 70.3755 22.3748 70.6273 22.3748C71.3155 22.3748 71.8443 22.2153 72.2136 21.8964C73.5811 20.7154 73.8434 19.6721 74.2281 18.6838L68.8898 6.94974H72.4403L75.9403 15.0578L79.4152 6.94974H82.9405L78.2317 18.0543C77.7953 19.0951 76.4607 21.611 75.9403 22.4C75.4367 23.2058 74.8408 23.8269 74.1525 24.2633C73.4643 24.6998 72.6333 24.918 71.6597 24.918Z" fill="#1D1D1D"/>
<path d="M35.8106 32V22.0328H37.9167L40.8436 28.0224L43.7706 22.0328H45.8612V32H43.7706V25.5151L41.4476 30.282H40.2397L37.9012 25.5151V32H35.8106Z" fill="#1D1D1D"/>
<path d="M47.3122 32L51.1219 22.0328H53.4138L57.208 32H55.0399L54.0952 29.6011H50.425L49.4958 32H47.3122ZM50.7347 27.9914H53.7855L52.2524 23.9829L50.7347 27.9914Z" fill="#1D1D1D"/>
<path d="M58.662 32V22.0328H63.3389C64.1236 22.0328 64.7637 22.1824 65.2592 22.4816C65.7651 22.7808 66.1419 23.1884 66.3897 23.7043C66.6375 24.2202 66.7614 24.8083 66.7614 25.4687C66.7614 26.1394 66.6169 26.7326 66.3278 27.2485C66.049 27.7644 65.6464 28.1669 65.1198 28.4558C64.6036 28.7343 63.9893 28.8736 63.277 28.8736H60.7527V32H58.662ZM60.7527 27.2176H62.8433C63.4422 27.2176 63.8913 27.0628 64.1907 26.7533C64.5004 26.4334 64.6553 26.0052 64.6553 25.4687C64.6553 24.8909 64.5107 24.4524 64.2216 24.1531C63.9325 23.8436 63.4989 23.6888 62.9208 23.6888H60.7527V27.2176Z" fill="#1D1D1D"/>
<path d="M69.1273 4.19672C69.6045 4.19672 70.0279 4.16631 70.3974 4.10549C70.7668 4.05987 71.1286 3.96864 71.4827 3.83179V1.66501C71.221 1.75625 70.9824 1.81707 70.7668 1.84748C70.5359 1.87789 70.305 1.89309 70.0741 1.89309C69.4429 1.89309 68.9579 1.74864 68.6192 1.45974C68.2651 1.17084 67.911 0.684263 67.5569 1.8441e-05C66.9954 1.61005e-05 65.0688 -2.08394e-05 64.1384 1.87399e-05C64.4686 0.710401 64.8229 1.34903 65.2015 1.9159C65.6633 2.64576 66.2099 3.20837 66.8411 3.60371C67.4723 3.99905 68.2343 4.19672 69.1273 4.19672Z" fill="#1D1D1D"/>
</svg>
