<svg width="24" height="24" viewBox="0 0 24 24" fill="none" xmlns="http://www.w3.org/2000/svg">
<g clip-path="url(#clip0_156_285)">
<path d="M23.3953 0.295311C23.775 0.576561 24 1.02656 24 1.5V4.875V17.25C24 19.3219 21.9844 21 19.5 21C17.0156 21 15 19.3219 15 17.25C15 15.1781 17.0156 13.5 19.5 13.5C20.025 13.5 20.5312 13.575 21 13.7156V6.89062L9 10.4906V20.25C9 22.3219 6.98438 24 4.5 24C2.01562 24 0 22.3219 0 20.25C0 18.1781 2.01562 16.5 4.5 16.5C5.025 16.5 5.53125 16.575 6 16.7156V9.375V6C6 5.33906 6.43594 4.75312 7.06875 4.56094L22.0687 0.060936C22.5234 -0.0750015 23.0156 0.0093735 23.3953 0.295311Z" fill="#F4C0E8"/>
</g>
<defs>
<clipPath id="clip0_156_285">
<rect width="24" height="24" fill="white"/>
</clipPath>
</defs>
</svg>
